<?xml version="1.0" encoding="UTF-8"?>
<svg id="Layer_1" xmlns="http://www.w3.org/2000/svg" viewBox="0 0 852.92 72.73">
  <defs>
    <style>
      .cls-1 {
        fill: #26224d;
      }
    </style>
  </defs>
  <path class="cls-1" d="M0,62.63c5.2-11.42,14.71-13.4,23.85-15.07,61.16-11.22,122.09-24.22,183.64-32.69C289.91,3.52,373.06-.55,456.32.06c63.57.47,127.14,1.25,190.68,2.99,57.49,1.58,114.94,4.47,172.38,7.27,8.58.42,17.62,2.26,25.39,5.78,10.57,4.78,10.88,16.3.81,22.18-5.56,3.25-12.67,5.15-19.14,5.31-23.65.6-47.34.79-70.98.08-64.93-1.95-129.84-5.61-194.78-6.46-158.41-2.09-316.3,5.09-473.06,29.97-20.64,3.28-41.71,3.97-62.6,5.45-9.01.64-17.33-1.68-25.02-9.99Z"/>
</svg>