<?xml version="1.0" encoding="UTF-8"?>
<svg xmlns="http://www.w3.org/2000/svg" xmlns:xlink="http://www.w3.org/1999/xlink" viewBox="0 0 1627.14 1516.1">
  <defs>
    <style>
      .cls-1 {
        fill: url(#linear-gradient);
      }

      .cls-2 {
        fill: #1d9061;
      }

      .cls-3 {
        fill: #1b9263;
        font-family: Inter-Bold, Inter;
        font-size: 201.87px;
        font-variation-settings: 'wght' 700, 'slnt' 0;
        font-weight: 700;
      }
    </style>
    <linearGradient id="linear-gradient" x1="788.63" y1="865.69" x2="788.63" y2="0" gradientUnits="userSpaceOnUse">
      <stop offset="0" stop-color="#1b9263"/>
      <stop offset="1" stop-color="#2cb67d"/>
    </linearGradient>
  </defs>
  <g id="Layer_1">
    <g>
      <path class="cls-2" d="M477.65,903.67c-5.2,17.98-10.21,35.42-15.28,52.85-26.87,92.48-53.82,184.94-80.46,277.49-1.75,6.08-4.16,7.69-10.3,7.57-22.03-.43-44.08-.29-66.12-.06-3.9.04-5.22-1.27-6.27-4.83-19.08-64.65-38.3-129.26-57.57-193.86-.62-2.07-.16-5.71-2.98-5.74-2.87-.04-2.41,3.64-3.02,5.67-19.17,64.25-38.28,128.52-57.18,192.85-1.38,4.69-3.35,6.01-8.21,5.95-22.58-.32-45.18-.24-67.76-.04-3.56.03-5.01-1.03-5.98-4.37-31.89-109.94-63.88-219.86-95.83-329.78-.3-1.03-.4-2.11-.68-3.64,13.33,1.01,26.12,3.04,38.53,7.39,16.72,5.86,33.03,12.51,46.61,24.3,9.48,8.24,16.29,18.26,19.17,30.7,11.86,51.36,23.73,102.72,35.63,154.07.39,1.67-.1,4.39,2.1,4.53,2.73.17,2.26-2.81,2.72-4.56,18.5-70.11,37.03-140.21,55.28-210.39,1.32-5.06,3.29-6.35,8.31-6.28,20.76.31,41.53.25,62.3.02,3.82-.04,5.24,1.09,6.18,4.71,18.44,70.69,37,141.35,55.54,212.01.23.88.34,1.8.67,2.64.37.95.38,2.33,1.81,2.39,1.76.07,1.81-1.37,2.1-2.62,2.12-9.21,4.3-18.4,6.42-27.61,10.35-44.99,20.9-89.94,30.87-135.02,2.48-11.23,8.28-19.53,16.94-26.41,14.92-11.86,32.21-18.86,50.15-24.52,11.5-3.63,23.26-5.58,36.32-5.4Z"/>
      <path class="cls-2" d="M710.54,1114.4c-.36,24.54-3.98,47-14.69,67.85-18.85,36.69-49.49,56.72-89.77,62.37-25.54,3.59-50.99,2.46-75.3-6.89-41.64-16.01-65.34-47.36-73.47-90.47-6.05-32.08-4.24-63.87,9.54-94.03,17.51-38.3,48.04-59.82,89.15-66.43,26.6-4.28,53.14-3.13,78.49,6.69,41.41,16.05,64.41,47.48,73.08,90.26,2.14,10.56,2.58,21.29,2.97,30.63ZM628.01,1113.6c.17-15.43-2.07-31.91-10.38-46.98-7.67-13.89-18.96-22.28-35.55-21.99-16.44.29-27.65,8.72-35.26,22.63-6.97,12.73-9.46,26.62-10,40.93-.7,18.55.75,36.79,9.52,53.6,7.52,14.42,19.02,23.27,35.91,23.48,16.77.21,28.06-8.47,35.71-22.66,7.99-14.83,10.13-30.94,10.05-49.02Z"/>
      <path class="cls-2" d="M1212.46,1164.34c-4.56,24.62-16.79,44.15-36.85,58.66-18.3,13.24-39.12,19.79-61.38,22.09-23.95,2.48-47.68,1.56-70.66-6.26-34.61-11.78-58.81-34.92-70.15-69.61-13.48-41.25-12.98-82.59,7.05-121.94,17.85-35.06,47.52-54.66,86.18-60.67,24.49-3.81,48.72-2.46,72.12,6.12,38.88,14.26,60.9,43.22,70.48,82.58,4.43,18.21,4.29,36.81,4.22,55.39-.01,2.96-1.07,3.91-3.82,3.6-1.08-.12-2.18-.02-3.28-.02-52.1,0-104.19.08-156.29-.12-4.95-.02-6.07,1.2-5.62,6.02,2.25,24.55,14.19,40.54,35.18,45.92,12.1,3.1,24.22,2.57,35.98-1.8,9.38-3.48,16.64-9.56,21.13-18.69.9-1.84,1.27-3.67,4.48-3.54,22.73.87,45.48,1.37,68.22,2,.88.02,1.76.16,3.02.27ZM1090.7,1087.27c12.18,0,24.36,0,36.54,0,12.71,0,12.74-.04,9.12-12.51-6.36-21.91-26.02-33.79-51.52-31.14-20.52,2.13-38.39,20.35-40.14,40.6-.34,3.96,2.05,3.03,4.01,3.03,14,.04,27.99.02,41.99.03Z"/>
      <path class="cls-2" d="M1627.03,1134.99c0,23.5-.12,47,.1,70.5.05,4.74-1.55,7.72-5.28,10.48-16.18,11.98-34.87,17.7-54.11,22.07-4.06.92-8.33,1.04-12.3,2.21-4.17,1.23-4.14-.96-4.13-3.82.04-8.93.04-17.85-.02-26.78,0-1.1.76-2.85-1.11-3.13-1.21-.18-1.63,1.21-2.18,2.14-19.18,32.29-49.58,39.02-83.87,36.61-11.88-.83-23.33-3.64-34.11-8.91-21.92-10.73-34.08-28.56-36.89-52.48-1.84-15.65-1.25-31.34,5.5-46.07,9.5-20.75,26.9-31.81,47.76-38.51,17.29-5.55,35.25-7.03,53.18-8.85,10.85-1.1,21.77-2.08,32.25-5.37,15.99-5.03,20.05-21.62,8.35-33.87-6.95-7.28-16.01-9.19-25.46-9.18-16.05.03-29.94,4.4-36.88,20.78-.88,2.07-2.3,2.35-4.34,2.25-18.52-.88-36.19-5.47-53.39-12.1-3.19-1.23-6.35-2.53-9.43-4.14-3.67-1.93-3.93-3.81-2.36-7.28,8.62-18.96,22.27-33.04,40.67-42.62,23.67-12.34,49.18-15.04,75.31-13.9,21.49.94,42.23,5.27,61.23,15.84,27.24,15.16,41.89,37.88,41.54,69.66-.24,21.5-.04,43-.04,64.49ZM1546.77,1127.86c-12.99,5.28-26.61,7.41-40.21,9.49-8.33,1.27-16.42,3.15-23.84,7.22-9.85,5.41-15.04,15.1-13.86,25.19,1.35,11.58,8.25,18.16,18.96,21.35,7.28,2.17,14.66,2.11,22.13,1.05,18.84-2.67,34.54-17.06,36.64-35.15,1.1-9.48.19-19.19.19-29.15Z"/>
      <path class="cls-2" d="M748.08,988.05c12.21,0,24.42.24,36.62-.13,4.33-.13,5.92,1.31,6.97,5.29,14.44,54.47,29.03,108.9,43.58,163.34.19.7.16,1.52.52,2.11.75,1.27.13,3.77,2.48,3.6,1.83-.13,1.67-2.2,2.03-3.49,3.46-12.62,6.84-25.26,10.23-37.9,11.39-42.49,22.82-84.96,34.07-127.49,1.05-3.95,2.49-5.49,6.85-5.44,24.96.24,49.92.2,74.88.03,4.13-.03,4.84.86,3.49,4.76-28.06,81.43-56.04,162.89-83.92,244.38-1.13,3.29-2.51,4.48-6.06,4.4-11.11-.26-22.23-.23-33.34-.02-3.99.08-6.36-.6-5.58-5.28.75-4.53-1.31-5.33-5.34-4.12-12.98,3.91-26.33,5.05-39.84,5.46-4.54.14-5.96-1.74-7.2-5.4-10.68-31.5-21.46-62.96-32.23-94.43-16.49-48.13-32.94-96.27-49.57-144.35-1.45-4.19-1.3-5.55,3.66-5.42,12.56.32,25.14.11,37.71.1Z"/>
      <path class="cls-2" d="M1236.89,1114.74c0-40.43.06-80.86-.09-121.28-.02-4.2.93-5.56,5.37-5.52,22.76.24,45.53.22,68.29,0,4.18-.04,5.2,1.17,5.1,5.21-.27,11.65-.17,23.31-.02,34.96.02,1.94-1.4,5.16,1.27,5.61,2.24.38,2.06-3,2.65-4.74,4.39-13.03,10.96-24.57,22.19-32.96,16.79-12.55,35.57-13.38,55.18-9.33,2.19.45,2.86,1.69,2.85,3.86-.12,20.76-.21,41.52-.17,62.28,0,3.97-1.64,4.36-5.01,3.65-12.88-2.68-25.88-4.48-38.97-1.68-22.85,4.89-37.81,24.21-37.86,48.92-.08,43.89-.12,87.78.11,131.66.03,5.12-1.45,6.18-6.29,6.13-23.13-.25-46.26-.25-69.38,0-4.47.05-5.33-1.35-5.32-5.5.15-40.43.09-80.86.09-121.28Z"/>
    </g>
    <text class="cls-3" transform="translate(347.26 1451.58)"><tspan x="0" y="0">Solutions</tspan></text>
  </g>
  <g id="Layer_2">
    <path class="cls-1" d="M1475.41,230.76c-5.27-40.39-13.48-80.26-28.6-118.37-13.34-33.62-30.83-64.79-60.97-86.85-38.41-28.13-80-33.22-124.28-14.28-21.03,8.99-39.02,22.32-55.33,37.81-31.8,30.19-56.41,65.88-79.53,102.62-37.56,59.7-70.54,121.85-102.23,184.69-35.35,70.08-72.35,139.33-109.33,208.59-12.05,22.56-25.4,44.45-38.16,66.65,14.05-2.23,28.13-3.54,42.23-4.26-14.1.73-28.18,2.03-42.23,4.26,0,0,.03,0,.03,0-.4.66-.81,1.32-1.21,1.98-19.76,30.08-39.06,60.5-64.92,86.76-6.95-19.09-11.39-37.87-16.24-56.54-9.92-38.15-21.72-75.67-38.97-111.33-3.58-8.62-8.26-16.67-12.74-24.85-35.29-64.49-86.74-111.99-154.66-141.94-47.21-20.82-97.2-29.39-148.65-30.57-14.93-.34-29.9-.75-44.95,1.02.93-1.4,1.97-2.2,3.12-2.82,63.05-34.18,128.38-61.55,201.2-68.21,27.09-2.47,53.64-1.22,79.98,4.86,50.48,11.66,89.03,41.04,120.81,79.98,34.39,42.14,57.95,90.29,78.93,139.79,4.82,11.38,9.29,22.91,14.23,35.15,18.54-39.65,26.43-80.55,29.39-122.46,1.41-19.92-1.47-39.62-4.06-59.47-5.19-39.79-20.13-75.42-43.31-107.74-26.06-36.34-58.21-66.72-99.13-86.44-39.26-18.92-81.56-28.07-125-30.66-37.5-2.24-75.04-.2-112.04,6.75-55.05,10.33-107.77,27.95-158.27,51.73-78.62,37-150.7,83.62-213.86,143.01-25.11,23.61-49.13,48.33-62.58,80.55-15.94,38.2-8.75,75.98,24.33,102.59,22.87,18.4,50.56,20.74,78.51,17.31,31.54-3.87,61.95-13.39,92.86-20.41,39.48-8.95,79.09-16.87,119.87-17.19,22.1-.17,44.13.12,65.9,4.32,36.12,6.97,67.61,23,94.79,47.33h0c13.84,15.48,26.28,31.81,35.96,50.29,18.4,35.13,28.08,73.08,38.37,110.84,9.26,33.98,17.89,68.14,35.59,99.17,33.5,58.73,99.35,80.58,161.9,54.03,42.28-17.95,71.11-50.97,99.1-84.9,8.04-9.74,15.01-20.34,22.51-30.61,2.84,2.29,3.5,5.01,4.76,7.41,13.32,25.36,28.88,49.18,48.86,70.09,30.37,31.79,66.96,51.68,111.55,54.83,39.49,2.79,75.95-8.06,109.71-27.8,31.94-18.68,58.17-43.81,81.84-71.7,22.69-26.74,42.22-55.62,59.28-86.08,27.09-48.35,48.35-99.1,63.78-152.19.47-1,1.13-1.96,1.39-3.01,6.52-26.24,12.36-52.53,16.36-79.37,4.29-28.75,7.71-57.55,9.1-86.46,2.05-42.7.52-85.45-5.02-127.88ZM1059.31,607.02c-1.45-.01-2.9-.04-4.36-.07,1.45.03,2.9.06,4.36.07.73,0,1.45,0,2.17,0-.72,0-1.45,0-2.17,0ZM1270.3,587.77c-19.66,37.97-41.9,74.18-73.1,104.3-9.35,9.03-19.48,17.09-31.44,22.78-6.6,3.14-13.34,3.35-20.37,3.16-3.35-.09-4.89-2.19-6.69-4.21-20.24-22.81-33.05-49.76-44.65-77.38-4.55-10.84-8.88-21.76-13.31-32.65h0c-2.03-5.37-3.57-10.99-6.19-16.06-5.41-10.45-3.52-19.4,1.93-29.7,30.62-57.87,60.5-116.13,90.54-174.3,31.4-60.81,63.77-121.12,101.64-178.33,10.61-16.03,22.47-31.4,36.31-45.7,8.76,18.02,13.23,37,17.04,55.99,7.37,36.78,10.33,74.14,9.76,111.54-.47,30.68-2.49,61.32-7.22,91.86-5.67,36.56-14.09,72.2-27.35,106.77-.18.47.06,1.08.1,1.63-8.71,20.22-16.84,40.68-26.99,60.29Z"/>
  </g>
</svg>