<?xml version="1.0" encoding="UTF-8"?>
<svg id="Layer_1" xmlns="http://www.w3.org/2000/svg" xmlns:xlink="http://www.w3.org/1999/xlink" viewBox="0 0 1392.85 243.63">
  <defs>
    <style>
      .cls-1 {
        fill: url(#New_Gradient_Swatch);
      }

      .cls-2 {
        fill: url(#New_Gradient_Swatch-5);
      }

      .cls-3 {
        fill: url(#New_Gradient_Swatch-7);
      }

      .cls-4 {
        fill: url(#New_Gradient_Swatch-4);
      }

      .cls-5 {
        fill: url(#New_Gradient_Swatch-6);
      }

      .cls-6 {
        fill: url(#New_Gradient_Swatch-3);
      }

      .cls-7 {
        fill: url(#New_Gradient_Swatch-2);
      }
    </style>
    <linearGradient id="New_Gradient_Swatch" data-name="New Gradient Swatch" x1="426.38" y1="126.25" x2="710.09" y2="126.25" gradientUnits="userSpaceOnUse">
      <stop offset="0" stop-color="#1b9263"/>
      <stop offset="1" stop-color="#2cb67d"/>
    </linearGradient>
    <linearGradient id="New_Gradient_Swatch-2" data-name="New Gradient Swatch" x1="696.05" y1="151.76" x2="848.41" y2="151.76" xlink:href="#New_Gradient_Swatch"/>
    <linearGradient id="New_Gradient_Swatch-3" data-name="New Gradient Swatch" x1="999.09" y1="151.74" x2="1147.16" y2="151.74" xlink:href="#New_Gradient_Swatch"/>
    <linearGradient id="New_Gradient_Swatch-4" data-name="New Gradient Swatch" x1="1253.32" y1="151.62" x2="1392.85" y2="151.62" xlink:href="#New_Gradient_Swatch"/>
    <linearGradient id="New_Gradient_Swatch-5" data-name="New Gradient Swatch" x1="845.67" y1="151.3" x2="1002.78" y2="151.3" xlink:href="#New_Gradient_Swatch"/>
    <linearGradient id="New_Gradient_Swatch-6" data-name="New Gradient Swatch" x1="1161" y1="150.3" x2="1257.75" y2="150.3" xlink:href="#New_Gradient_Swatch"/>
    <linearGradient id="New_Gradient_Swatch-7" data-name="New Gradient Swatch" x1="194.93" y1="-57.22" x2="194.93" y2="186.42" gradientTransform="translate(0 186.42) scale(1 -1)" xlink:href="#New_Gradient_Swatch"/>
  </defs>
  <g id="Layer_1-2" data-name="Layer_1">
    <g>
      <path class="cls-1" d="M710.08,25.95c-3.09,10.68-6.06,21.04-9.08,31.39-15.96,54.93-31.97,109.85-47.79,164.82-1.04,3.61-2.47,4.57-6.12,4.5-13.09-.26-26.18-.17-39.27-.04-2.32.02-3.1-.75-3.72-2.87-11.33-38.4-22.75-76.78-34.2-115.15-.37-1.23-.1-3.39-1.77-3.41-1.7-.02-1.43,2.16-1.79,3.37-11.39,38.16-22.74,76.34-33.96,114.55-.82,2.79-1.99,3.57-4.88,3.53-13.41-.19-26.84-.14-40.25-.02-2.11.02-2.98-.61-3.55-2.6-18.94-65.3-37.94-130.59-56.92-195.88-.18-.61-.24-1.25-.4-2.16,7.92.6,15.51,1.81,22.89,4.39,9.93,3.48,19.62,7.43,27.69,14.43,5.63,4.89,9.68,10.85,11.39,18.24,7.04,30.51,14.1,61.01,21.16,91.51.23.99-.06,2.61,1.25,2.69,1.62.1,1.34-1.67,1.62-2.71,10.99-41.64,22-83.28,32.84-124.97.78-3.01,1.95-3.77,4.94-3.73,12.33.18,24.67.15,37,.01,2.27-.02,3.11.65,3.67,2.8,10.95,41.99,21.98,83.96,32.99,125.93.14.52.2,1.07.4,1.57.22.56.23,1.38,1.08,1.42,1.05.04,1.08-.81,1.25-1.56,1.26-5.47,2.55-10.93,3.81-16.4,6.15-26.72,12.41-53.42,18.34-80.2,1.47-6.67,4.92-11.6,10.06-15.69,8.86-7.04,19.13-11.2,29.79-14.56,6.83-2.16,13.82-3.31,21.57-3.21h0Z"/>
      <path class="cls-7" d="M848.41,151.12c-.21,14.58-2.36,27.92-8.73,40.3-11.2,21.79-29.4,33.69-53.32,37.05-15.17,2.13-30.29,1.46-44.73-4.09-24.73-9.51-38.81-28.13-43.64-53.74-3.59-19.05-2.52-37.94,5.67-55.85,10.4-22.75,28.53-35.53,52.95-39.46,15.8-2.54,31.56-1.86,46.62,3.97,24.6,9.53,38.26,28.2,43.41,53.61,1.27,6.27,1.53,12.65,1.76,18.19h0ZM799.39,150.64c.1-9.17-1.23-18.95-6.17-27.91-4.56-8.25-11.26-13.23-21.12-13.06-9.76.17-16.42,5.18-20.94,13.44-4.14,7.56-5.62,15.81-5.94,24.31-.42,11.02.45,21.85,5.65,31.84,4.47,8.57,11.3,13.82,21.33,13.95,9.96.12,16.67-5.03,21.21-13.46,4.75-8.81,6.02-18.38,5.97-29.12h0Z"/>
      <path class="cls-6" d="M1146.54,180.78c-2.71,14.62-9.97,26.22-21.89,34.84-10.87,7.86-23.24,11.75-36.46,13.12-14.23,1.47-28.32.93-41.97-3.72-20.56-7-34.93-20.74-41.67-41.35-8.01-24.5-7.71-49.06,4.19-72.43,10.6-20.82,28.23-32.47,51.19-36.04,14.55-2.26,28.94-1.46,42.84,3.64,23.09,8.47,36.17,25.67,41.86,49.05,2.63,10.82,2.55,21.86,2.51,32.9,0,1.76-.64,2.32-2.27,2.14-.64-.07-1.29-.01-1.95-.01-30.95,0-61.89.05-92.83-.07-2.94-.01-3.61.71-3.34,3.58,1.34,14.58,8.43,24.08,20.9,27.28,7.19,1.84,14.39,1.53,21.37-1.07,5.57-2.07,9.88-5.68,12.55-11.1.53-1.09.75-2.18,2.66-2.1,13.5.52,27.01.81,40.52,1.19.52.01,1.05.1,1.79.16h0ZM1074.22,135h21.7c7.55,0,7.57-.02,5.42-7.43-3.78-13.01-15.46-20.07-30.6-18.5-12.19,1.27-22.8,12.09-23.84,24.12-.2,2.35,1.22,1.8,2.38,1.8,8.32.02,16.63.01,24.94.02h0Z"/>
      <path class="cls-4" d="M1392.79,163.35c0,13.96-.07,27.92.06,41.88.03,2.82-.92,4.59-3.14,6.22-9.61,7.12-20.71,10.51-32.14,13.11-2.41.55-4.95.62-7.31,1.31-2.48.73-2.46-.57-2.45-2.27.02-5.3.02-10.6-.01-15.91,0-.65.45-1.69-.66-1.86-.72-.11-.97.72-1.29,1.27-11.39,19.18-29.45,23.18-49.82,21.75-7.06-.49-13.86-2.16-20.26-5.29-13.02-6.37-20.24-16.96-21.91-31.17-1.09-9.3-.74-18.62,3.27-27.36,5.64-12.33,15.98-18.89,28.37-22.87,10.27-3.3,20.94-4.18,31.59-5.26,6.44-.65,12.93-1.24,19.16-3.19,9.5-2.99,11.91-12.84,4.96-20.12-4.13-4.32-9.51-5.46-15.12-5.45-9.53.02-17.78,2.61-21.91,12.34-.52,1.23-1.37,1.4-2.58,1.34-11-.52-21.5-3.25-31.71-7.19-1.89-.73-3.77-1.5-5.6-2.46-2.18-1.15-2.33-2.26-1.4-4.32,5.12-11.26,13.23-19.63,24.16-25.32,14.06-7.33,29.21-8.93,44.73-8.26,12.76.56,25.08,3.13,36.37,9.41,16.18,9,24.88,22.5,24.67,41.38-.14,12.77-.02,25.54-.02,38.31h0ZM1345.12,159.11c-7.72,3.14-15.81,4.4-23.88,5.64-4.95.75-9.75,1.87-14.16,4.29-5.85,3.21-8.93,8.97-8.23,14.96.8,6.88,4.9,10.79,11.26,12.68,4.32,1.29,8.71,1.25,13.14.62,11.19-1.59,20.52-10.13,21.76-20.88.65-5.63.11-11.4.11-17.31h0Z"/>
      <path class="cls-2" d="M870.71,76.07c7.25,0,14.5.14,21.75-.08,2.57-.08,3.52.78,4.14,3.14,8.58,32.35,17.24,64.68,25.89,97.02.11.42.1.9.31,1.25.45.75.08,2.24,1.47,2.14,1.09-.08.99-1.31,1.21-2.07,2.06-7.5,4.06-15,6.08-22.51,6.77-25.24,13.55-50.46,20.24-75.73.62-2.35,1.48-3.26,4.07-3.23,14.83.14,29.65.12,44.48.02,2.45-.02,2.87.51,2.07,2.83-16.67,48.37-33.29,96.75-49.85,145.16-.67,1.95-1.49,2.66-3.6,2.61-6.6-.15-13.2-.14-19.8-.01-2.37.05-3.78-.36-3.31-3.14.45-2.69-.78-3.17-3.17-2.45-7.71,2.32-15.64,3-23.66,3.24-2.7.08-3.54-1.03-4.28-3.21-6.34-18.71-12.75-37.4-19.14-56.09-9.79-28.59-19.57-57.18-29.44-85.74-.86-2.49-.77-3.3,2.17-3.22,7.46.19,14.93.07,22.4.06h0Z"/>
      <path class="cls-5" d="M1161.05,151.32c0-24.01.04-48.03-.05-72.04-.01-2.49.55-3.3,3.19-3.28,13.52.14,27.04.13,40.56,0,2.48-.02,3.09.69,3.03,3.09-.16,6.92-.1,13.85-.01,20.77.01,1.15-.83,3.06.75,3.33,1.33.23,1.22-1.78,1.57-2.82,2.61-7.74,6.51-14.59,13.18-19.58,9.97-7.45,21.13-7.95,32.78-5.54,1.3.27,1.7,1,1.69,2.29-.07,12.33-.12,24.66-.1,36.99,0,2.36-.97,2.59-2.98,2.17-7.65-1.59-15.37-2.66-23.15-1-13.57,2.9-22.46,14.38-22.49,29.06-.05,26.07-.07,52.14.07,78.2.02,3.04-.86,3.67-3.74,3.64-13.74-.15-27.48-.15-41.21,0-2.66.03-3.17-.8-3.16-3.27.09-24.01.05-48.03.05-72.04h0Z"/>
    </g>
  </g>
  <g id="Layer_2">
    <path class="cls-3" d="M388.22,64.94c-1.48-11.37-3.79-22.59-8.05-33.31-3.75-9.46-8.68-18.23-17.16-24.44-10.81-7.92-22.51-9.35-34.98-4.02-5.92,2.53-10.98,6.28-15.57,10.64-8.95,8.5-15.88,18.54-22.38,28.88-10.57,16.8-19.85,34.29-28.77,51.98-9.95,19.72-20.36,39.21-30.77,58.7-3.39,6.35-7.15,12.51-10.74,18.76,3.95-.63,7.92-1,11.88-1.2-3.97.21-7.93.57-11.88,1.2h0c-.11.19-.23.37-.34.56-5.56,8.47-10.99,17.03-18.27,24.42-1.96-5.37-3.21-10.66-4.57-15.91-2.79-10.74-6.11-21.3-10.97-31.33-1.01-2.43-2.32-4.69-3.59-6.99-9.93-18.15-24.41-31.52-43.53-39.95-13.29-5.86-27.35-8.27-41.83-8.6-4.2-.1-8.41-.21-12.65.29.26-.39.55-.62.88-.79,17.74-9.62,36.13-17.32,56.62-19.2,7.62-.7,15.1-.34,22.51,1.37,14.21,3.28,25.06,11.55,34,22.51,9.68,11.86,16.31,25.41,22.21,39.34,1.36,3.2,2.61,6.45,4,9.89,5.22-11.16,7.44-22.67,8.27-34.46.4-5.61-.41-11.15-1.14-16.74-1.46-11.2-5.67-21.23-12.19-30.32-7.33-10.23-16.38-18.78-27.9-24.33-11.05-5.32-22.95-7.9-35.18-8.63-10.55-.63-21.12-.06-31.53,1.9-15.49,2.91-30.33,7.87-44.54,14.56-22.13,10.41-42.41,23.53-60.19,40.25-7.07,6.64-13.83,13.6-17.61,22.67-4.49,10.75-2.46,21.38,6.85,28.87,6.44,5.18,14.23,5.84,22.1,4.87,8.88-1.09,17.43-3.77,26.13-5.74,11.11-2.52,22.26-4.75,33.73-4.84,6.22-.05,12.42.03,18.55,1.22,10.17,1.96,19.03,6.47,26.68,13.32h0c3.89,4.36,7.4,8.95,10.12,14.15,5.18,9.89,7.9,20.57,10.8,31.19,2.61,9.56,5.03,19.18,10.02,27.91,9.43,16.53,27.96,22.68,45.56,15.21,11.9-5.05,20.01-14.34,27.89-23.89,2.26-2.74,4.22-5.72,6.33-8.61.8.64.99,1.41,1.34,2.09,3.75,7.14,8.13,13.84,13.75,19.73,8.55,8.95,18.84,14.54,31.39,15.43,11.11.79,21.37-2.27,30.88-7.82,8.99-5.26,16.37-12.33,23.03-20.18,6.39-7.53,11.88-15.65,16.68-24.23,7.62-13.61,13.61-27.89,17.95-42.83.13-.28.32-.55.39-.85,1.83-7.38,3.48-14.78,4.6-22.34,1.21-8.09,2.17-16.2,2.56-24.33.58-12.02.15-24.05-1.41-35.99h0ZM271.12,170.83c-.41,0-.82-.01-1.23-.02.41,0,.82.02,1.23.02h.61-.61ZM330.5,165.42c-5.53,10.69-11.79,20.88-20.57,29.35-2.63,2.54-5.48,4.81-8.85,6.41-1.86.88-3.75.94-5.73.89-.94-.03-1.38-.62-1.88-1.18-5.7-6.42-9.3-14-12.57-21.78-1.28-3.05-2.5-6.12-3.75-9.19h0c-.57-1.51-1-3.09-1.74-4.52-1.52-2.94-.99-5.46.54-8.36,8.62-16.29,17.03-32.68,25.48-49.05,8.84-17.11,17.95-34.09,28.6-50.19,2.99-4.51,6.32-8.84,10.22-12.86,2.47,5.07,3.72,10.41,4.8,15.76,2.07,10.35,2.91,20.87,2.75,31.39-.13,8.63-.7,17.26-2.03,25.85-1.6,10.29-3.97,20.32-7.7,30.05-.05.13.02.3.03.46-2.45,5.69-4.74,11.45-7.6,16.97h0Z"/>
  </g>
</svg>