<svg id="Layer_1" data-name="Layer 1" xmlns="http://www.w3.org/2000/svg" xmlns:xlink="http://www.w3.org/1999/xlink" viewBox="0 0 1474.54 921.38"><defs><linearGradient id="linear-gradient" x1="994.36" y1="-277.14" x2="994.36" y2="644.24" gradientTransform="matrix(1, 0, 0, -1, -246.98, 760.3)" gradientUnits="userSpaceOnUse"><stop offset="0" stop-color="#1b9263"/><stop offset="1" stop-color="#2cb67d"/></linearGradient></defs><g id="Layer_2" data-name="Layer 2"><path d="M1478.36,361.68c-5.6-43-14.35-85.43-30.45-126-14.2-35.78-32.81-69-64.89-92.44-40.89-29.94-85.13-35.35-132.29-15.2-22.4,9.56-41.52,23.76-58.88,40.24-33.85,32.14-60,70.12-84.65,109.22-40,63.55-75,129.7-108.82,196.59-37.63,74.6-77,148.3-116.37,222-12.81,24-27,47.31-40.61,70.94a425.94,425.94,0,0,1,45-4.48,425.94,425.94,0,0,0-45,4.48h0c-.44.7-.86,1.41-1.29,2.11-21,32-41.58,64.39-69.1,92.34-7.4-20.31-12.12-40.32-17.29-60.18-10.55-40.6-23.12-80.53-41.45-118.5-3.8-9.18-8.79-17.75-13.55-26.46-37.57-68.63-92.33-119.19-164.65-151.07C483.82,483.12,430.61,474,375.86,472.75c-15.9-.37-31.83-.81-47.84,1.12a8.7,8.7,0,0,1,3.36-3c67.1-36.38,136.63-65.5,214.15-72.64,28.84-2.64,57.12-1.3,85.12,5.18,53.77,12.41,94.77,43.68,128.6,85.13,36.61,44.8,61.68,96.1,84,148.79,5.14,12.11,9.89,24.38,15.14,37.4,19.74-42.2,28.14-85.73,31.3-130.34,1.49-21.21-1.57-42.18-4.33-63.3-5.52-42.35-21.42-80.28-46.1-114.68-27.73-38.67-61.95-71-105.51-92-41.79-20.16-86.82-29.87-133-32.63A487.92,487.92,0,0,0,481.46,249C422.87,260,366.76,278.71,313,304,229.32,343.4,152.6,393,85.37,456.22,58.64,481.35,33.08,507.66,18.76,542c-17,40.67-9.32,80.88,25.89,109.19,24.35,19.58,53.82,22.07,83.57,18.42,33.6-4.11,65.94-14.25,98.83-21.72,42-9.52,84.18-17.92,127.59-18.29,23.52-.18,47,.13,70.14,4.6,38.45,7.42,72,24.48,100.9,50.41h0c14.73,16.47,28,33.86,38.27,53.52,19.59,37.39,29.89,77.78,40.84,118,9.86,36.17,19,72.53,37.89,105.55,35.67,62.51,105.74,85.78,172.32,57.52,45-19.11,75.68-54.26,105.48-90.37,8.55-10.38,16-21.65,24-32.59,3,2.45,3.72,5.34,5.07,7.84,14.18,27,30.73,52.35,52,74.6,32.33,33.84,71.28,55,118.73,58.36,42,3,80.85-8.58,116.78-29.58,34-19.88,61.92-46.63,87.11-76.33a575.78,575.78,0,0,0,63.1-91.62,770.36,770.36,0,0,0,67.89-162,18.58,18.58,0,0,0,1.48-3.2c6.94-27.93,13.16-55.91,17.41-84.48,4.57-30.61,8.21-61.25,9.69-92A766.86,766.86,0,0,0,1478.36,361.68Zm-442.9,400.44-4.63-.07,4.63.07ZM1260,741.65c-20.92,40.41-44.6,79-77.8,111-10,9.61-20.73,18.19-33.47,24.25-7,3.36-14.2,3.56-21.67,3.36-3.56-.1-5.21-2.33-7.11-4.48-21.54-24.28-35.19-53-47.54-82.37-4.84-11.53-9.44-23.17-14.16-34.73h0c-2.16-5.71-3.81-11.69-6.6-17.09-5.75-11.12-3.75-20.65,2-31.62,32.6-61.6,64.4-123.6,96.33-185.52,33.43-64.72,67.88-128.91,108.18-189.8A335.46,335.46,0,0,1,1296.9,286c9.32,19.18,14.08,39.38,18.13,59.6a559.08,559.08,0,0,1,10.38,118.73c-.49,32.66-2.64,65.26-7.68,97.77-6,38.91-15,76.85-29.13,113.64-.19.49.07,1.12.12,1.74C1279.5,699,1270.84,720.78,1260,741.65Z" transform="translate(-10.11 -116.06)" fill="url(#linear-gradient)"/></g></svg>